<?xml version="1.0" standalone="no"?>
<!DOCTYPE svg PUBLIC "-//W3C//DTD SVG 20010904//EN"
 "http://www.w3.org/TR/2001/REC-SVG-20010904/DTD/svg10.dtd">
<svg version="1.0" xmlns="http://www.w3.org/2000/svg"
 width="1015.000000pt" height="301.000000pt" viewBox="0 0 1015.000000 301.000000"
 preserveAspectRatio="xMidYMid meet">

<g transform="translate(0.000000,301.000000) scale(0.100000,-0.100000)"
fill="#000000" stroke="none">
<path d="M1616 2542 c-6 -10 -21 -108 -36 -237 -28 -240 -71 -472 -142 -765
-109 -455 -250 -728 -453 -878 l-60 -44 -155 6 c-230 9 -315 -11 -308 -73 2
-19 14 -31 43 -46 33 -16 60 -19 160 -19 107 1 129 4 206 31 84 30 86 30 215
22 71 -4 181 -15 244 -24 337 -46 634 -62 844 -46 113 8 137 14 192 41 75 37
124 91 124 136 0 64 -58 73 -75 12 -26 -92 -118 -138 -295 -145 -149 -7 -420
11 -640 42 -96 14 -231 31 -298 39 -68 8 -126 16 -128 19 -3 2 16 26 42 53
103 109 183 231 240 364 69 163 106 281 175 550 33 128 35 137 77 339 17 78
33 145 35 148 3 2 15 -1 27 -7 11 -6 31 -10 43 -8 20 3 22 10 28 88 9 147 -17
364 -47 395 -17 16 -50 20 -58 7z"/>
<path d="M5269 2493 c-55 -58 -83 -102 -143 -221 -87 -174 -195 -473 -271
-752 -25 -91 -43 -139 -56 -148 -19 -13 -27 -66 -10 -76 4 -3 -25 -153 -65
-333 -76 -337 -80 -359 -66 -381 15 -23 40 -1 52 46 74 291 255 611 383 678
45 24 57 6 57 -82 0 -106 18 -225 39 -254 28 -39 80 -39 136 0 86 59 295 319
295 367 0 37 -28 27 -63 -24 -17 -25 -71 -95 -119 -154 -198 -244 -218 -242
-227 24 -6 159 -6 159 -34 183 -34 29 -56 30 -106 4 -68 -34 -174 -170 -252
-320 -45 -88 -48 -58 -10 101 30 124 30 124 88 184 191 197 418 665 487 1007
20 97 20 148 0 176 -26 37 -63 29 -115 -25z m81 -65 c0 -114 -105 -426 -207
-618 -88 -165 -231 -365 -248 -348 -16 15 98 367 178 553 43 101 131 275 165
329 38 60 92 126 103 126 5 0 9 -19 9 -42z"/>
<path d="M8473 1768 c-5 -7 -15 -28 -23 -45 -14 -37 -17 -38 -44 -18 -27 21
-90 19 -134 -4 -145 -74 -321 -399 -325 -599 -1 -65 1 -75 25 -98 21 -22 31
-25 58 -19 55 12 154 124 244 274 43 73 81 130 83 127 3 -3 4 -60 4 -128 -2
-133 11 -193 51 -235 28 -30 89 -31 128 -3 22 16 159 187 249 311 7 10 10 26
7 35 -11 28 -41 -2 -140 -141 -99 -139 -163 -198 -193 -179 -30 19 -41 75 -42
202 -1 144 12 209 47 238 23 19 24 25 19 75 -4 39 0 72 15 121 11 37 18 74 15
83 -8 18 -31 20 -44 3z m-91 -149 l20 -26 -71 -139 c-116 -229 -216 -376 -279
-412 -35 -19 -41 -20 -52 -7 -19 22 -13 116 11 187 71 211 247 436 333 425 10
-1 28 -14 38 -28z"/>
<path d="M2120 1731 c-168 -89 -250 -389 -141 -514 20 -23 31 -48 36 -87 9
-65 27 -105 56 -121 40 -21 84 16 142 121 25 46 30 50 132 97 96 44 155 84
155 104 0 31 -34 22 -117 -31 -82 -52 -121 -64 -108 -32 56 145 77 343 42 409
-38 72 -120 94 -197 54z m118 -35 c46 -24 57 -58 56 -165 -2 -97 -15 -164 -52
-256 -18 -45 -23 -51 -63 -62 -60 -16 -96 -16 -102 0 -6 16 2 60 40 225 23
103 24 115 10 129 -10 10 -24 13 -41 9 -34 -8 -53 -75 -64 -216 -4 -60 -11
-104 -17 -104 -5 1 -17 20 -25 43 -28 79 22 245 100 335 27 30 101 76 123 76
4 0 20 -6 35 -14z m-48 -534 c0 -17 -61 -100 -78 -107 -10 -4 -21 1 -29 11
-14 19 -18 86 -6 97 9 10 113 9 113 -1z"/>
<path d="M3354 1683 c-165 -300 -291 -503 -363 -584 -50 -58 -115 -93 -143
-78 -72 38 -59 266 23 420 30 56 50 71 64 49 9 -14 48 -13 63 2 21 21 13 55
-19 82 -72 61 -136 16 -187 -130 -32 -92 -45 -186 -40 -289 4 -87 6 -97 34
-132 26 -32 38 -39 74 -41 92 -7 157 66 408 463 34 53 39 46 22 -35 -21 -100
-40 -270 -40 -356 0 -139 25 -194 88 -194 43 0 93 48 173 167 65 96 179 293
179 309 0 6 -7 17 -15 24 -12 10 -18 10 -30 0 -8 -7 -15 -17 -15 -23 0 -19
-102 -212 -155 -293 -54 -83 -109 -144 -129 -144 -25 0 -40 47 -44 142 -7 150
29 355 99 565 32 98 34 136 7 141 -11 2 -28 -17 -54 -65z"/>
<path d="M4225 1709 c-87 -46 -172 -158 -239 -313 -83 -194 -86 -333 -7 -366
78 -32 176 10 380 162 151 113 185 144 175 159 -13 22 -51 5 -113 -50 -158
-140 -315 -241 -376 -241 -26 0 -55 38 -55 73 0 147 185 483 290 527 52 21 75
-19 50 -86 -14 -36 -4 -63 26 -70 34 -9 52 10 60 63 19 128 -79 201 -191 142z"/>
<path d="M6155 1703 c-81 -42 -175 -146 -228 -251 -53 -106 -71 -183 -64 -266
11 -120 106 -182 239 -155 180 37 520 290 449 334 -6 3 -36 -19 -68 -50 -71
-68 -196 -153 -289 -197 -89 -42 -173 -49 -222 -19 -41 27 -54 59 -50 135 l3
61 45 0 c69 1 151 46 235 129 91 90 135 164 135 228 0 37 -5 50 -22 62 -34 24
-105 19 -163 -11z m133 -25 c20 -20 14 -51 -18 -102 -43 -68 -119 -140 -178
-170 -52 -26 -116 -34 -127 -16 -22 35 141 231 228 274 57 29 77 32 95 14z"/>
<path d="M6968 1638 c-68 -92 -123 -315 -85 -346 6 -5 21 -12 32 -14 14 -3 19
-11 18 -28 -1 -14 -5 -78 -9 -142 -6 -104 -5 -118 10 -124 37 -14 57 23 137
255 52 150 85 227 100 237 15 9 10 -35 -23 -203 -27 -135 -30 -164 -19 -177
28 -34 46 -15 90 100 49 129 103 244 115 244 5 0 6 -21 2 -47 -27 -195 -34
-373 -17 -446 18 -75 69 -104 130 -73 61 32 178 191 260 355 47 93 52 124 19
119 -16 -2 -28 -20 -50 -71 -39 -97 -145 -271 -199 -328 -31 -34 -53 -49 -71
-49 -40 0 -53 44 -53 180 1 121 10 178 56 353 35 130 37 182 9 197 -29 16 -50
0 -90 -67 -19 -32 -45 -74 -58 -93 l-23 -35 7 71 c7 81 -4 114 -40 114 -12 0
-32 -10 -44 -23 -32 -34 -110 -206 -157 -346 -70 -209 -67 -89 6 223 36 154
36 190 -3 194 -20 2 -32 -5 -50 -30z"/>
<path d="M9171 1601 c-42 -42 -81 -154 -81 -233 0 -57 1 -59 31 -65 27 -5 30
-9 26 -32 -24 -127 -39 -240 -34 -254 3 -9 15 -17 26 -17 15 0 26 17 47 73 82
218 131 323 175 377 l20 25 -4 -30 c-3 -16 -10 -57 -17 -90 -34 -180 -40 -322
-16 -380 30 -70 80 -68 154 8 69 71 199 318 190 363 -5 30 -32 22 -50 -16 -9
-19 -43 -91 -76 -160 -122 -256 -201 -277 -189 -50 3 52 15 130 26 173 12 42
30 111 41 152 31 116 25 165 -22 165 -22 0 -68 -63 -134 -180 -52 -94 -70
-111 -61 -57 25 140 30 216 18 231 -18 21 -47 20 -70 -3z"/>
</g>
</svg>
